<?xml version="1.0" encoding="UTF-8" standalone="yes"?><svg xmlns="http://www.w3.org/2000/svg" xmlns:xlink="http://www.w3.org/1999/xlink" width="1700" height="1700" viewBox="0 0 1700 1700" version="1.2" baseProfile="tiny-ps"><title>NotesHub</title><g id="notebook"><linearGradient id="linearGradient1" x1="920.06" y1="1217.19" x2="837.36" y2="783.76" gradientUnits="userSpaceOnUse"><stop offset="1e-05" stop-color="#265cae" stop-opacity="1"></stop><stop offset="1" stop-color="#2f6eca" stop-opacity="1"></stop></linearGradient><path id="Path" fill="url(#linearGradient1)" stroke="none" d="M 443.659973 221.25 L 1256.329956 221.25 C 1324.835449 221.25 1380.369995 276.784668 1380.369995 345.290039 L 1380.369995 1354.709961 C 1380.369995 1423.215454 1324.835449 1478.75 1256.329956 1478.75 L 443.659973 1478.75 C 375.154602 1478.75 319.619995 1423.215454 319.619995 1354.709961 L 319.619995 345.290039 C 319.619995 276.784668 375.154602 221.25 443.659973 221.25 Z"></path></g><g id="sectionsbackground"><path id="path1" fill="#ffffff" stroke="none" d="M 1252.680054 505.449951 C 1225.920044 510.849976 1206.680054 534.219971 1206.680054 561.359985 L 1206.839966 883.849976 C 1208.640015 858.469971 1227.26001 837.109985 1252.680054 831.98999 L 1338.930054 814.599976 C 1346.469971 813.080078 1353.640015 809.959961 1359.619995 805.150024 C 1364.780029 801 1368.839966 795.969971 1371.420044 790.359985 L 1371.420044 791.880005 C 1368.829956 797.48999 1364.77002 802.52002 1359.619995 806.669922 C 1353.640015 811.47998 1346.469971 814.599976 1338.930054 816.119995 L 1252.680054 833.51001 C 1225.920044 838.909973 1206.680054 862.280029 1206.680054 889.420044 L 1206.839966 1211.630005 C 1206.75 1212.969971 1206.680054 1214.319946 1206.680054 1215.670044 L 1206.77002 1395.560059 C 1203.449951 1442.02002 1166.349976 1478.670044 1120.949951 1478.670044 L 1252.050049 1478.670044 C 1317.329956 1478.670044 1370.75 1422.969971 1370.75 1354.880005 L 1370.75 1119.77002 C 1370.97998 1119.319946 1371.219971 1118.869995 1371.430054 1118.410034 L 1371.430054 1240.97998 L 1371.599976 1240.97998 L 1371.459961 912.920044 L 1371.599976 912.920044 L 1371.430054 510.25 L 1371.599976 496.849976"></path></g><g id="sectionsbottom"><path id="path2" fill="#203d7f" stroke="none" d="M 1368.709961 1132.290039 C 1362.439941 1137.109985 1354.920044 1140.23999 1347.01001 1141.76001 L 1256.560059 1159.180054 C 1228.48999 1164.589966 1208.319946 1188.01001 1208.319946 1215.199951 L 1208.410034 1395.459961 C 1204.930054 1442.02002 1166.02002 1478.73999 1118.410034 1478.73999 L 1255.890015 1478.73999 C 1324.349976 1478.73999 1380.359985 1422.920044 1380.359985 1354.699951 L 1380.359985 1118.829956 C 1377.640015 1123.900024 1373.660034 1128.469971 1368.699951 1132.280029 Z"></path></g><g id="sectionstop"><path id="path3" fill="#2159b5" stroke="none" d="M 1256 832.73999 L 1346.130005 815.320068 C 1354.01001 813.800049 1361.51001 810.669922 1367.76001 805.849976 C 1373.150024 801.699951 1377.390015 796.650024 1380.089966 791.030029 L 1380.089966 913.859985 L 1380.27002 913.859985 L 1380.089966 510.359985 L 1380.089966 463.820068 C 1377.390015 469.439941 1373.140015 474.47998 1367.76001 478.640015 C 1361.51001 483.459961 1354.01001 486.590088 1346.130005 488.109985 L 1256 505.530029 C 1228.030029 510.939941 1207.930054 534.359985 1207.930054 561.550049 L 1208.089966 884.699951 C 1209.969971 859.26001 1229.430054 837.869995 1256 832.72998 Z"></path><path id="path4" fill="#1d4896" stroke="none" d="M 1256 1162.209961 L 1346.130005 1144.660034 C 1354.01001 1143.130005 1361.51001 1139.969971 1367.76001 1135.119995 C 1373.150024 1130.930054 1377.390015 1125.859985 1380.089966 1120.189941 L 1380.089966 1243.930054 L 1380.27002 1243.930054 L 1380.089966 837.440002 L 1380.089966 790.560059 C 1377.390015 796.219971 1373.140015 801.300049 1367.76001 805.48999 C 1361.51001 810.349976 1354.01001 813.5 1346.130005 815.030029 L 1256 832.580017 C 1228.030029 838.030029 1207.930054 861.630005 1207.930054 889.02002 L 1208.089966 1214.569946 C 1209.969971 1188.949951 1229.430054 1167.390015 1256 1162.209961 Z"></path></g><g id="hubsymbol"><g id="Group"><path id="path5" fill="#ffffff" stroke="none" d="M 921.140015 869.25 C 921.140015 942.234375 861.974426 1001.400024 788.98999 1001.400024 C 716.005554 1001.400024 656.840027 942.234375 656.840027 869.25 C 656.840027 796.265625 716.005554 737.099976 788.98999 737.099976 C 861.974426 737.099976 921.140015 796.265625 921.140015 869.25 Z"></path><path id="path6" fill="#ffffff" stroke="none" d="M 690.505005 441.497314 C 722.110352 441.844849 747.449829 467.747803 747.102295 499.353149 C 746.754761 530.958496 720.851807 556.297974 689.246521 555.950439 C 657.641174 555.602905 632.301697 529.699951 632.649231 498.094604 C 632.996765 466.489258 658.899719 441.14978 690.505005 441.497314 Z"></path><path id="path7" fill="#ffffff" stroke="none" d="M 978.333496 549.269897 C 1009.938721 549.617432 1035.278198 575.520264 1034.930664 607.12561 C 1034.58313 638.731079 1008.680298 664.070435 977.074951 663.7229 C 945.469482 663.375366 920.130127 637.472534 920.477661 605.867065 C 920.825195 574.261719 946.728027 548.922363 978.333496 549.269897 Z"></path><path id="path8" fill="#ffffff" stroke="none" d="M 993.51123 1027.175659 C 1025.116699 1027.523193 1050.456177 1053.426147 1050.108643 1085.031494 C 1049.761108 1116.636841 1023.858154 1141.976196 992.252808 1141.628662 C 960.647461 1141.281128 935.307983 1115.378296 935.655518 1083.772949 C 936.003052 1052.167603 961.906006 1026.828125 993.51123 1027.175659 Z"></path><path id="path9" fill="#ffffff" stroke="none" d="M 737.702026 1135.966553 C 769.307434 1136.313965 794.646851 1162.216919 794.299316 1193.822266 C 793.951782 1225.427612 768.048889 1250.76709 736.443481 1250.419556 C 704.838135 1250.072021 679.498718 1224.169189 679.846252 1192.563721 C 680.193787 1160.958374 706.096619 1135.618896 737.702026 1135.966553 Z"></path><path id="path10" fill="#ffffff" stroke="none" d="M 527.547852 694.61084 C 559.153137 694.958374 584.492615 720.861206 584.145081 752.466553 C 583.797546 784.071899 557.894653 809.411377 526.289307 809.063843 C 494.68396 808.716309 469.344482 782.813354 469.692017 751.208008 C 470.039551 719.602661 495.942505 694.263306 527.547852 694.61084 Z"></path><path id="path11" fill="#ffffff" stroke="#ffffff" stroke-width="30" d="M 692.900024 498.73999 C 725.419983 617.619995 757.929993 736.48999 790.450012 855.369995"></path><path id="path12" fill="none" stroke="#ffffff" stroke-width="30" d="M 992.910034 1084.439941 L 790.450012 883.839966 L 787.77002 900.069946 L 741.099976 1182.219971"></path><path id="path13" fill="none" stroke="#ffffff" stroke-width="30" d="M 526.929993 751.869995 L 788.98999 869.25 L 977.73999 606.52002"></path></g></g></svg>
